<mxfile host="app.diagrams.net" agent="Mozilla/5.0 (Windows NT 10.0; Win64; x64) AppleWebKit/537.36 (KHTML, like Gecko) Chrome/133.0.0.0 Safari/537.36" version="26.0.16">
  <diagram name="Página-1" id="G6XT5jI0pQlwZ8WYFb1J">
    <mxGraphModel dx="2140" dy="754" grid="1" gridSize="10" guides="1" tooltips="1" connect="1" arrows="1" fold="1" page="1" pageScale="1" pageWidth="827" pageHeight="1169" math="0" shadow="0">
      <root>
        <mxCell id="0" />
        <mxCell id="1" parent="0" />
        <mxCell id="KL3MQ-RZ--edH_SUAPt6-1" value="Cliente entra no bar" style="ellipse;whiteSpace=wrap;html=1;" parent="1" vertex="1">
          <mxGeometry x="-10" y="10" width="93.33333333333334" height="54.57627118644068" as="geometry" />
        </mxCell>
        <mxCell id="KL3MQ-RZ--edH_SUAPt6-2" value="Cliente sai do bar." style="ellipse;whiteSpace=wrap;html=1;" parent="1" vertex="1">
          <mxGeometry x="546.6666666666667" y="511.92457627118654" width="93.33333333333334" height="54.57627118644068" as="geometry" />
        </mxCell>
        <mxCell id="KL3MQ-RZ--edH_SUAPt6-4" value="" style="endArrow=classic;html=1;rounded=0;exitX=0.5;exitY=1;exitDx=0;exitDy=0;" parent="1" source="KL3MQ-RZ--edH_SUAPt6-1" target="KL3MQ-RZ--edH_SUAPt6-5" edge="1">
          <mxGeometry width="50" height="50" relative="1" as="geometry">
            <mxPoint x="-95.55555555555556" y="111.35593220338983" as="sourcePoint" />
            <mxPoint x="-89.33333333333334" y="126.94915254237289" as="targetPoint" />
          </mxGeometry>
        </mxCell>
        <mxCell id="KL3MQ-RZ--edH_SUAPt6-5" value="Cliente senta e pega cardápio." style="rounded=0;whiteSpace=wrap;html=1;" parent="1" vertex="1">
          <mxGeometry x="-10" y="95.76271186440678" width="93.33333333333334" height="46.77966101694915" as="geometry" />
        </mxCell>
        <mxCell id="KL3MQ-RZ--edH_SUAPt6-6" value="" style="endArrow=classic;html=1;rounded=0;exitX=0.5;exitY=1;exitDx=0;exitDy=0;" parent="1" source="KL3MQ-RZ--edH_SUAPt6-5" target="KL3MQ-RZ--edH_SUAPt6-7" edge="1">
          <mxGeometry width="50" height="50" relative="1" as="geometry">
            <mxPoint x="145.55555555555554" y="204.9152542372881" as="sourcePoint" />
            <mxPoint x="-89.33333333333334" y="189.32203389830508" as="targetPoint" />
          </mxGeometry>
        </mxCell>
        <mxCell id="KL3MQ-RZ--edH_SUAPt6-7" value="Deseja pedir uma cervejinha?" style="rhombus;whiteSpace=wrap;html=1;fontSize=9;" parent="1" vertex="1">
          <mxGeometry x="-10" y="179.96610169491527" width="93.33333333333334" height="90.44067796610169" as="geometry" />
        </mxCell>
        <mxCell id="KL3MQ-RZ--edH_SUAPt6-8" value="" style="endArrow=classic;html=1;rounded=0;exitX=1;exitY=0.5;exitDx=0;exitDy=0;entryX=0;entryY=0.5;entryDx=0;entryDy=0;" parent="1" source="KL3MQ-RZ--edH_SUAPt6-7" edge="1" target="KL3MQ-RZ--edH_SUAPt6-14">
          <mxGeometry width="50" height="50" relative="1" as="geometry">
            <mxPoint x="145.55555555555554" y="204.9152542372881" as="sourcePoint" />
            <mxPoint x="161.11111111111111" y="225.1864406779661" as="targetPoint" />
          </mxGeometry>
        </mxCell>
        <mxCell id="KL3MQ-RZ--edH_SUAPt6-9" value="Sim" style="text;html=1;align=center;verticalAlign=middle;resizable=0;points=[];autosize=1;strokeColor=none;fillColor=none;" parent="1" vertex="1">
          <mxGeometry x="91.11111111111111" y="197.1186440677966" width="40" height="30" as="geometry" />
        </mxCell>
        <mxCell id="KL3MQ-RZ--edH_SUAPt6-10" value="Não" style="text;html=1;align=center;verticalAlign=middle;resizable=0;points=[];autosize=1;strokeColor=none;fillColor=none;" parent="1" vertex="1">
          <mxGeometry x="-10" y="270.4067796610169" width="50" height="30" as="geometry" />
        </mxCell>
        <mxCell id="KL3MQ-RZ--edH_SUAPt6-13" value="" style="endArrow=classic;html=1;rounded=0;exitX=0.5;exitY=1;exitDx=0;exitDy=0;entryX=0.5;entryY=0;entryDx=0;entryDy=0;" parent="1" source="KL3MQ-RZ--edH_SUAPt6-7" edge="1" target="KL3MQ-RZ--edH_SUAPt6-15">
          <mxGeometry width="50" height="50" relative="1" as="geometry">
            <mxPoint x="145.55555555555554" y="204.9152542372881" as="sourcePoint" />
            <mxPoint x="36.66666666666667" y="329.66101694915255" as="targetPoint" />
          </mxGeometry>
        </mxCell>
        <mxCell id="KL3MQ-RZ--edH_SUAPt6-14" value="Garçom traz uma cerveja" style="rounded=0;whiteSpace=wrap;html=1;" parent="1" vertex="1">
          <mxGeometry x="145.55555555555554" y="201.79661016949152" width="93.33333333333334" height="46.77966101694915" as="geometry" />
        </mxCell>
        <mxCell id="KL3MQ-RZ--edH_SUAPt6-15" value="Cliente começa a pensar na vida." style="rounded=0;whiteSpace=wrap;html=1;" parent="1" vertex="1">
          <mxGeometry x="-10" y="306.271186440678" width="93.33333333333334" height="46.77966101694915" as="geometry" />
        </mxCell>
        <mxCell id="hsKu2HlYXzbLwGOjQ1lt-1" value="" style="endArrow=classic;html=1;rounded=0;exitX=0.5;exitY=1;exitDx=0;exitDy=0;" edge="1" parent="1" source="KL3MQ-RZ--edH_SUAPt6-15">
          <mxGeometry width="50" height="50" relative="1" as="geometry">
            <mxPoint x="277.77777777777777" y="259.49152542372883" as="sourcePoint" />
            <mxPoint x="36.66666666666667" y="408.8745572364936" as="targetPoint" />
          </mxGeometry>
        </mxCell>
        <mxCell id="hsKu2HlYXzbLwGOjQ1lt-2" value="Cliente lembra da ex e começa a chorar." style="rounded=0;whiteSpace=wrap;html=1;" vertex="1" parent="1">
          <mxGeometry x="-10" y="407.6271186440678" width="93.33333333333334" height="46.77966101694915" as="geometry" />
        </mxCell>
        <mxCell id="hsKu2HlYXzbLwGOjQ1lt-8" value="Deseja mais uma breja?" style="rhombus;whiteSpace=wrap;html=1;fontSize=9;" vertex="1" parent="1">
          <mxGeometry x="290" y="179.96610169491527" width="93.33333333333334" height="90.44067796610169" as="geometry" />
        </mxCell>
        <mxCell id="hsKu2HlYXzbLwGOjQ1lt-9" value="" style="endArrow=classic;html=1;rounded=0;exitX=1;exitY=0.5;exitDx=0;exitDy=0;entryX=0;entryY=0.5;entryDx=0;entryDy=0;" edge="1" parent="1" source="KL3MQ-RZ--edH_SUAPt6-14" target="hsKu2HlYXzbLwGOjQ1lt-8">
          <mxGeometry width="50" height="50" relative="1" as="geometry">
            <mxPoint x="400" y="310" as="sourcePoint" />
            <mxPoint x="450" y="260" as="targetPoint" />
          </mxGeometry>
        </mxCell>
        <mxCell id="hsKu2HlYXzbLwGOjQ1lt-10" value="" style="endArrow=classic;html=1;rounded=0;exitX=0.5;exitY=1;exitDx=0;exitDy=0;entryX=1;entryY=0.5;entryDx=0;entryDy=0;" edge="1" parent="1" source="hsKu2HlYXzbLwGOjQ1lt-8" target="KL3MQ-RZ--edH_SUAPt6-15">
          <mxGeometry width="50" height="50" relative="1" as="geometry">
            <mxPoint x="400" y="310" as="sourcePoint" />
            <mxPoint x="450" y="260" as="targetPoint" />
            <Array as="points">
              <mxPoint x="337" y="330" />
            </Array>
          </mxGeometry>
        </mxCell>
        <mxCell id="hsKu2HlYXzbLwGOjQ1lt-11" value="Não" style="text;html=1;align=center;verticalAlign=middle;resizable=0;points=[];autosize=1;strokeColor=none;fillColor=none;" vertex="1" parent="1">
          <mxGeometry x="280" y="270.4067796610169" width="50" height="30" as="geometry" />
        </mxCell>
        <mxCell id="hsKu2HlYXzbLwGOjQ1lt-13" value="" style="endArrow=classic;html=1;rounded=0;exitX=1;exitY=0.5;exitDx=0;exitDy=0;entryX=0;entryY=0.5;entryDx=0;entryDy=0;" edge="1" parent="1" source="hsKu2HlYXzbLwGOjQ1lt-8" target="hsKu2HlYXzbLwGOjQ1lt-14">
          <mxGeometry width="50" height="50" relative="1" as="geometry">
            <mxPoint x="400" y="310" as="sourcePoint" />
            <mxPoint x="446.65999999999985" y="225.18644067796617" as="targetPoint" />
          </mxGeometry>
        </mxCell>
        <mxCell id="hsKu2HlYXzbLwGOjQ1lt-14" value="Garçom traz uma cerveja" style="rounded=0;whiteSpace=wrap;html=1;" vertex="1" parent="1">
          <mxGeometry x="446.66555555555556" y="201.79661016949152" width="93.33333333333334" height="46.77966101694915" as="geometry" />
        </mxCell>
        <mxCell id="hsKu2HlYXzbLwGOjQ1lt-15" value="Sim" style="text;html=1;align=center;verticalAlign=middle;resizable=0;points=[];autosize=1;strokeColor=none;fillColor=none;" vertex="1" parent="1">
          <mxGeometry x="394.0011111111111" y="197.1186440677966" width="40" height="30" as="geometry" />
        </mxCell>
        <mxCell id="hsKu2HlYXzbLwGOjQ1lt-17" value="Cliente pegou cerveja?" style="rhombus;whiteSpace=wrap;html=1;fontSize=11;" vertex="1" parent="1">
          <mxGeometry x="-10" y="493.99610169491524" width="93.33333333333334" height="90.44067796610169" as="geometry" />
        </mxCell>
        <mxCell id="hsKu2HlYXzbLwGOjQ1lt-18" value="" style="endArrow=classic;html=1;rounded=0;exitX=0.5;exitY=1;exitDx=0;exitDy=0;entryX=0.5;entryY=0;entryDx=0;entryDy=0;" edge="1" parent="1" source="hsKu2HlYXzbLwGOjQ1lt-2" target="hsKu2HlYXzbLwGOjQ1lt-17">
          <mxGeometry width="50" height="50" relative="1" as="geometry">
            <mxPoint x="400" y="510" as="sourcePoint" />
            <mxPoint x="450" y="460" as="targetPoint" />
          </mxGeometry>
        </mxCell>
        <mxCell id="hsKu2HlYXzbLwGOjQ1lt-19" value="Sim" style="text;html=1;align=center;verticalAlign=middle;resizable=0;points=[];autosize=1;strokeColor=none;fillColor=none;" vertex="1" parent="1">
          <mxGeometry x="105.55111111111111" y="499.9986440677966" width="40" height="30" as="geometry" />
        </mxCell>
        <mxCell id="hsKu2HlYXzbLwGOjQ1lt-20" value="" style="endArrow=classic;html=1;rounded=0;exitX=1;exitY=0.5;exitDx=0;exitDy=0;entryX=0;entryY=0.5;entryDx=0;entryDy=0;" edge="1" parent="1" source="hsKu2HlYXzbLwGOjQ1lt-17" target="hsKu2HlYXzbLwGOjQ1lt-21">
          <mxGeometry width="50" height="50" relative="1" as="geometry">
            <mxPoint x="400" y="510" as="sourcePoint" />
            <mxPoint x="170" y="539" as="targetPoint" />
          </mxGeometry>
        </mxCell>
        <mxCell id="hsKu2HlYXzbLwGOjQ1lt-21" value="Cliente paga conta." style="rounded=0;whiteSpace=wrap;html=1;" vertex="1" parent="1">
          <mxGeometry x="159.99555555555554" y="515.8266101694916" width="93.33333333333334" height="46.77966101694915" as="geometry" />
        </mxCell>
        <mxCell id="hsKu2HlYXzbLwGOjQ1lt-23" value="Não" style="text;html=1;align=center;verticalAlign=middle;resizable=0;points=[];autosize=1;strokeColor=none;fillColor=none;" vertex="1" parent="1">
          <mxGeometry x="-20" y="584.436779661017" width="50" height="30" as="geometry" />
        </mxCell>
        <mxCell id="hsKu2HlYXzbLwGOjQ1lt-24" value="Cliente agradece a hospitalidade." style="rounded=0;whiteSpace=wrap;html=1;" vertex="1" parent="1">
          <mxGeometry x="-10.00444444444446" y="629.9966101694915" width="93.33333333333334" height="46.77966101694915" as="geometry" />
        </mxCell>
        <mxCell id="hsKu2HlYXzbLwGOjQ1lt-25" value="" style="endArrow=classic;html=1;rounded=0;exitX=0.5;exitY=1;exitDx=0;exitDy=0;entryX=0.5;entryY=0;entryDx=0;entryDy=0;" edge="1" parent="1" source="hsKu2HlYXzbLwGOjQ1lt-17" target="hsKu2HlYXzbLwGOjQ1lt-24">
          <mxGeometry width="50" height="50" relative="1" as="geometry">
            <mxPoint x="400" y="510" as="sourcePoint" />
            <mxPoint x="450" y="460" as="targetPoint" />
          </mxGeometry>
        </mxCell>
        <mxCell id="hsKu2HlYXzbLwGOjQ1lt-26" value="Deseja mais uma breja?" style="rhombus;whiteSpace=wrap;html=1;fontSize=9;" vertex="1" parent="1">
          <mxGeometry x="590" y="179.96610169491527" width="93.33333333333334" height="90.44067796610169" as="geometry" />
        </mxCell>
        <mxCell id="hsKu2HlYXzbLwGOjQ1lt-27" value="" style="endArrow=classic;html=1;rounded=0;entryX=0;entryY=0.5;entryDx=0;entryDy=0;exitX=1;exitY=0.5;exitDx=0;exitDy=0;" edge="1" parent="1" source="hsKu2HlYXzbLwGOjQ1lt-14" target="hsKu2HlYXzbLwGOjQ1lt-26">
          <mxGeometry width="50" height="50" relative="1" as="geometry">
            <mxPoint x="400" y="410" as="sourcePoint" />
            <mxPoint x="450" y="360" as="targetPoint" />
          </mxGeometry>
        </mxCell>
        <mxCell id="hsKu2HlYXzbLwGOjQ1lt-29" value="" style="endArrow=none;html=1;rounded=0;entryX=0.5;entryY=1;entryDx=0;entryDy=0;" edge="1" parent="1" target="hsKu2HlYXzbLwGOjQ1lt-26">
          <mxGeometry width="50" height="50" relative="1" as="geometry">
            <mxPoint x="330" y="330" as="sourcePoint" />
            <mxPoint x="450" y="360" as="targetPoint" />
            <Array as="points">
              <mxPoint x="637" y="330" />
            </Array>
          </mxGeometry>
        </mxCell>
        <mxCell id="hsKu2HlYXzbLwGOjQ1lt-30" value="Não" style="text;html=1;align=center;verticalAlign=middle;resizable=0;points=[];autosize=1;strokeColor=none;fillColor=none;" vertex="1" parent="1">
          <mxGeometry x="590" y="276.2667796610169" width="50" height="30" as="geometry" />
        </mxCell>
        <mxCell id="hsKu2HlYXzbLwGOjQ1lt-31" value="Sim" style="text;html=1;align=center;verticalAlign=middle;resizable=0;points=[];autosize=1;strokeColor=none;fillColor=none;" vertex="1" parent="1">
          <mxGeometry x="700.0011111111111" y="189.9986440677966" width="40" height="30" as="geometry" />
        </mxCell>
        <mxCell id="hsKu2HlYXzbLwGOjQ1lt-32" value="Está tudo bem com o cliente?" style="rhombus;whiteSpace=wrap;html=1;fontSize=9;" vertex="1" parent="1">
          <mxGeometry x="770" y="174.98" width="103.62" height="100.41" as="geometry" />
        </mxCell>
        <mxCell id="hsKu2HlYXzbLwGOjQ1lt-33" value="" style="endArrow=classic;html=1;rounded=0;entryX=0;entryY=0.5;entryDx=0;entryDy=0;exitX=1;exitY=0.5;exitDx=0;exitDy=0;" edge="1" parent="1" source="hsKu2HlYXzbLwGOjQ1lt-26" target="hsKu2HlYXzbLwGOjQ1lt-32">
          <mxGeometry width="50" height="50" relative="1" as="geometry">
            <mxPoint x="550" y="235" as="sourcePoint" />
            <mxPoint x="600" y="235" as="targetPoint" />
          </mxGeometry>
        </mxCell>
        <mxCell id="hsKu2HlYXzbLwGOjQ1lt-34" value="" style="endArrow=none;html=1;rounded=0;" edge="1" parent="1" target="hsKu2HlYXzbLwGOjQ1lt-32">
          <mxGeometry width="50" height="50" relative="1" as="geometry">
            <mxPoint x="630" y="330" as="sourcePoint" />
            <mxPoint x="937" y="270.41" as="targetPoint" />
            <Array as="points">
              <mxPoint x="822" y="330" />
            </Array>
          </mxGeometry>
        </mxCell>
        <mxCell id="hsKu2HlYXzbLwGOjQ1lt-35" value="Não" style="text;html=1;align=center;verticalAlign=middle;resizable=0;points=[];autosize=1;strokeColor=none;fillColor=none;" vertex="1" parent="1">
          <mxGeometry x="770" y="276.2667796610169" width="50" height="30" as="geometry" />
        </mxCell>
        <mxCell id="hsKu2HlYXzbLwGOjQ1lt-36" value="Sim" style="text;html=1;align=center;verticalAlign=middle;resizable=0;points=[];autosize=1;strokeColor=none;fillColor=none;" vertex="1" parent="1">
          <mxGeometry x="890.0011111111111" y="189.9986440677966" width="40" height="30" as="geometry" />
        </mxCell>
        <mxCell id="hsKu2HlYXzbLwGOjQ1lt-37" value="Garçom traz uma cerveja" style="rounded=0;whiteSpace=wrap;html=1;" vertex="1" parent="1">
          <mxGeometry x="939.9955555555556" y="201.79661016949152" width="93.33333333333334" height="46.77966101694915" as="geometry" />
        </mxCell>
        <mxCell id="hsKu2HlYXzbLwGOjQ1lt-38" value="" style="endArrow=classic;html=1;rounded=0;entryX=0;entryY=0.5;entryDx=0;entryDy=0;exitX=1;exitY=0.5;exitDx=0;exitDy=0;" edge="1" parent="1" source="hsKu2HlYXzbLwGOjQ1lt-32" target="hsKu2HlYXzbLwGOjQ1lt-37">
          <mxGeometry width="50" height="50" relative="1" as="geometry">
            <mxPoint x="886.5" y="227.12" as="sourcePoint" />
            <mxPoint x="973.5" y="227.12" as="targetPoint" />
          </mxGeometry>
        </mxCell>
        <mxCell id="hsKu2HlYXzbLwGOjQ1lt-43" value="" style="edgeStyle=orthogonalEdgeStyle;rounded=0;orthogonalLoop=1;jettySize=auto;html=1;" edge="1" parent="1" source="hsKu2HlYXzbLwGOjQ1lt-39" target="hsKu2HlYXzbLwGOjQ1lt-37">
          <mxGeometry relative="1" as="geometry" />
        </mxCell>
        <mxCell id="hsKu2HlYXzbLwGOjQ1lt-39" value="Cliente paga conta." style="rounded=0;whiteSpace=wrap;html=1;" vertex="1" parent="1">
          <mxGeometry x="939.9955555555555" y="407.62661016949164" width="93.33333333333334" height="46.77966101694915" as="geometry" />
        </mxCell>
        <mxCell id="hsKu2HlYXzbLwGOjQ1lt-42" value="" style="edgeStyle=orthogonalEdgeStyle;rounded=0;orthogonalLoop=1;jettySize=auto;html=1;" edge="1" parent="1" source="hsKu2HlYXzbLwGOjQ1lt-40" target="KL3MQ-RZ--edH_SUAPt6-2">
          <mxGeometry relative="1" as="geometry" />
        </mxCell>
        <mxCell id="hsKu2HlYXzbLwGOjQ1lt-40" value="Cliente agradece a hospitalidade." style="rounded=0;whiteSpace=wrap;html=1;" vertex="1" parent="1">
          <mxGeometry x="319.99555555555554" y="515.8266101694916" width="93.33333333333334" height="46.77966101694915" as="geometry" />
        </mxCell>
        <mxCell id="hsKu2HlYXzbLwGOjQ1lt-41" value="" style="endArrow=classic;html=1;rounded=0;exitX=1;exitY=0.5;exitDx=0;exitDy=0;entryX=0;entryY=0.5;entryDx=0;entryDy=0;" edge="1" parent="1" source="hsKu2HlYXzbLwGOjQ1lt-21" target="hsKu2HlYXzbLwGOjQ1lt-40">
          <mxGeometry width="50" height="50" relative="1" as="geometry">
            <mxPoint x="260" y="538.72" as="sourcePoint" />
            <mxPoint x="337" y="538.72" as="targetPoint" />
          </mxGeometry>
        </mxCell>
        <mxCell id="hsKu2HlYXzbLwGOjQ1lt-46" value="" style="edgeStyle=orthogonalEdgeStyle;rounded=0;orthogonalLoop=1;jettySize=auto;html=1;" edge="1" parent="1" source="hsKu2HlYXzbLwGOjQ1lt-44" target="KL3MQ-RZ--edH_SUAPt6-2">
          <mxGeometry relative="1" as="geometry" />
        </mxCell>
        <mxCell id="hsKu2HlYXzbLwGOjQ1lt-44" value="Cliente agradece a hospitalidade." style="rounded=0;whiteSpace=wrap;html=1;" vertex="1" parent="1">
          <mxGeometry x="789.9955555555555" y="515.8266101694916" width="93.33333333333334" height="46.77966101694915" as="geometry" />
        </mxCell>
        <mxCell id="hsKu2HlYXzbLwGOjQ1lt-49" value="" style="endArrow=classic;html=1;rounded=0;entryX=1;entryY=0.5;entryDx=0;entryDy=0;exitX=0.5;exitY=1;exitDx=0;exitDy=0;" edge="1" parent="1" source="hsKu2HlYXzbLwGOjQ1lt-39" target="hsKu2HlYXzbLwGOjQ1lt-44">
          <mxGeometry width="50" height="50" relative="1" as="geometry">
            <mxPoint x="1000" y="562.61" as="sourcePoint" />
            <mxPoint x="1050" y="512.61" as="targetPoint" />
            <Array as="points">
              <mxPoint x="987" y="539" />
            </Array>
          </mxGeometry>
        </mxCell>
        <mxCell id="hsKu2HlYXzbLwGOjQ1lt-50" value="" style="curved=1;endArrow=classic;html=1;rounded=0;exitX=1;exitY=0.5;exitDx=0;exitDy=0;entryX=0.5;entryY=1;entryDx=0;entryDy=0;" edge="1" parent="1" source="hsKu2HlYXzbLwGOjQ1lt-24" target="KL3MQ-RZ--edH_SUAPt6-2">
          <mxGeometry width="50" height="50" relative="1" as="geometry">
            <mxPoint x="230" y="664.44" as="sourcePoint" />
            <mxPoint x="280" y="614.44" as="targetPoint" />
            <Array as="points">
              <mxPoint x="280" y="664.44" />
              <mxPoint x="570" y="660" />
            </Array>
          </mxGeometry>
        </mxCell>
      </root>
    </mxGraphModel>
  </diagram>
</mxfile>
